<svg xmlns="http://www.w3.org/2000/svg" xmlns:svg="http://www.w3.org/2000/svg" id="RSSicon" width="250" height="250" version="1.1" viewBox="0 0 500 500"><metadata id="metadata3829"/><defs id="defs3798"><linearGradient id="RSSg" x1=".085" x2=".915" y1=".085" y2=".915"><stop id="stop3801" offset="0" stop-color="#E3702D"/><stop id="stop3803" offset=".107" stop-color="#EA7D31"/><stop id="stop3805" offset=".35" stop-color="#F69537"/><stop id="stop3807" offset=".5" stop-color="#FB9E3A"/><stop id="stop3809" offset=".702" stop-color="#EA7C31"/><stop id="stop3811" offset=".887" stop-color="#DE642B"/><stop id="stop3813" offset="1" stop-color="#D95B29"/></linearGradient></defs><path style="fill:#ffc67f;fill-opacity:1" id="circle3821" d="m 133.42641,311.04918 c -29.87531,0 -54.158116,24.46596 -54.158116,54.76188 0,30.29598 24.282806,54.92065 54.158116,54.92065 27.84683,0 48.4868,-20.54844 51.47254,-43.48171 -11.65961,-13.42563 -16.32803,-29.75765 -14.112,-49.15607 -7.53903,-10.9515 -23.9536,-16.80873 -37.36054,-17.04475 z"/><path style="fill:#ffc67f;fill-opacity:1" id="path3823" d="m 79.268294,155.65231 0,77.61905 c 38.992166,0.0729 72.304486,13.06038 103.701406,36.50794 l 19.87768,-79.52382 C 192.81115,184.48666 187.95304,179.39245 177.25378,175.01739 146.2174,162.27961 112.75014,155.6654 79.268294,155.65231 z M 272.81372,236.44345 257.94157,290.015 c -2.43526,9.6449 -3.75566,17.6943 -3.75554,24.12412 -1.2e-4,18.61293 11.67771,27.77832 34.90539,27.77827 9.18802,5e-5 23.8935,-5.32877 43.51091,-12.3271 -12.22883,-37.44464 -32.81929,-64.72296 -59.78861,-93.14684 z m 66.83302,131.83113 0,28.88918 c -17.92028,5.54572 -47.23194,8.57531 -76.61631,9.20867 0.71635,6.6405 1.08206,7.67916 1.09547,14.35928 l 82.09859,-0.002 c -0.0722,-19.53176 -2.28516,-33.41438 -6.57775,-52.45501 z"/><path style="fill:#ffc67f;fill-opacity:1" id="path3825" d="m 79.268294,20.731699 0,80.000001 c 40.275316,0.0547 74.968426,2.38619 112.306926,17.69645 l 26.76654,0 11.89994,-52.736933 17.99992,-8.695504 C 194.24896,29.742312 139.57946,20.923218 79.268294,20.731699 z m 229.700816,65.311058 -8.44996,32.385393 48.20533,0 C 336.1789,106.78028 322.89168,95.952037 308.96911,86.042757 z m 67.30523,60.163653 -5.47775,34.60721 -82.79961,0 -0.31666,0.95301 c 35.08797,29.86149 63.64264,61.93522 83.03293,104.02016 19.3903,42.08495 29.59373,88.49085 29.66653,134.94281 l 78.88852,0.002 C 479.1908,371.5469 470.06865,316.75171 452.50731,270.90405 434.94598,225.05641 408.95674,182.54813 376.27434,146.20641 z"/><g transform="matrix(2.6535297,0,0,2.3614447,25.903825,-26.193559)" style="font-size:216.85968018px;font-style:oblique;font-variant:normal;font-weight:700;font-stretch:normal;text-align:start;line-height:125%;letter-spacing:0;word-spacing:0;writing-mode:lr-tb;text-anchor:start;fill:#fe8100;fill-opacity:1;stroke:#a5a2a2;stroke-width:0;stroke-miterlimit:4;stroke-opacity:1;stroke-dasharray:none;font-family:Trebuchet MS;-inkscape-font-specification:Trebuchet MS Bold Oblique" id="text3831-1"><path d="m 126.89125,84.320534 -31.238143,0 -11.435172,52.130596 c -0.917746,4.08434 -1.376117,8.02549 -1.376072,10.74832 -4.5e-5,7.88201 5.320559,12.35942 14.074059,12.3594 3.882518,2e-5 9.291328,-1.43195 18.115438,-5.15799 l 0,21.60206 c -7.62404,2.65121 -17.05662,3.97711 -30.186737,3.97711 -8.612303,0 -14.586718,-2.29341 -19.810521,-7.73914 -5.223854,-5.44572 -7.835509,-11.89442 -7.835491,-20.63627 -1.8e-5,-2.86616 0.317897,-5.69527 0.953246,-8.48983 l 13.56629,-58.794256 -13.885297,0 4.552928,-19.453254 13.130251,0 4.447221,-23.53792 27.45348,-10.31814 -6.99739,33.85606 31.02484,0 z" style="fill:#fe8100;fill-opacity:1;stroke:#a5a2a2;stroke-width:0;stroke-miterlimit:4;stroke-dasharray:none;font-family:Trebuchet MS;-inkscape-font-specification:Trebuchet MS Bold Oblique" id="path3769-7"/><path style="fill:none;stroke:#ffc67f;stroke-width:3.20182276;stroke-linecap:butt;stroke-linejoin:miter;stroke-miterlimit:4;stroke-opacity:1;stroke-dasharray:none" id="path3767" d="M -12.020357,190.9501 180.92458,190.33719"/><path style="font-size:216.85968018px;font-style:oblique;font-variant:normal;font-weight:700;font-stretch:normal;text-align:start;line-height:125%;letter-spacing:0;word-spacing:0;writing-mode:lr-tb;text-anchor:start;fill:none;stroke:#ffc67f;stroke-width:3.23339629;stroke-linecap:butt;stroke-linejoin:miter;stroke-miterlimit:4;stroke-opacity:1;stroke-dasharray:none;font-family:Trebuchet MS;-inkscape-font-specification:Trebuchet MS Bold Oblique" id="path3767-0" d="m 18.603323,8.5913725 0,216.7364075"/></g><path style="fill:#ffc67f;fill-opacity:1" id="circle3821-9" d="m 40.43055,532.41315 c 27.220023,-12.31278 39.261226,-44.61211 26.775101,-72.21536 -12.48615,-27.60331 -44.759509,-40.03148 -71.979528,-27.7187 -25.371838,11.47676 -35.708543,38.70541 -28.977222,60.83093 16.156543,7.427 27.1411026,20.38341 33.11687344,38.97103 11.38250456,6.87101 28.75215656,5.44258 41.06477556,0.1321 z"/></svg>